<svg xmlns="http://www.w3.org/2000/svg" viewBox="0 0 400 200" fill="none">
  <defs>
    <linearGradient id="sky" x1="0" y1="0" x2="0" y2="1">
      <stop offset="0%" stop-color="#38bdf8"/>
      <stop offset="100%" stop-color="#bae6fd"/>
    </linearGradient>
    <linearGradient id="panel" x1="0" y1="0" x2="0" y2="1">
      <stop offset="0%" stop-color="#1e3a5f"/>
      <stop offset="100%" stop-color="#2d5a8e"/>
    </linearGradient>
  </defs>
  <rect width="400" height="200" rx="12" fill="url(#sky)"/>
  <circle cx="320" cy="50" r="30" fill="#fbbf24" opacity="0.9"/>
  <circle cx="320" cy="50" r="40" fill="#fbbf24" opacity="0.2"/>
  <rect x="40" y="60" width="90" height="60" rx="4" fill="url(#panel)" stroke="#1e3a5f" stroke-width="2"/>
  <line x1="40" y1="80" x2="130" y2="80" stroke="#60a5fa" stroke-width="0.5" opacity="0.5"/>
  <line x1="40" y1="100" x2="130" y2="100" stroke="#60a5fa" stroke-width="0.5" opacity="0.5"/>
  <line x1="70" y1="60" x2="70" y2="120" stroke="#60a5fa" stroke-width="0.5" opacity="0.5"/>
  <line x1="100" y1="60" x2="100" y2="120" stroke="#60a5fa" stroke-width="0.5" opacity="0.5"/>
  <rect x="140" y="50" width="90" height="60" rx="4" fill="url(#panel)" stroke="#1e3a5f" stroke-width="2"/>
  <line x1="140" y1="70" x2="230" y2="70" stroke="#60a5fa" stroke-width="0.5" opacity="0.5"/>
  <line x1="140" y1="90" x2="230" y2="90" stroke="#60a5fa" stroke-width="0.5" opacity="0.5"/>
  <line x1="170" y1="50" x2="170" y2="110" stroke="#60a5fa" stroke-width="0.5" opacity="0.5"/>
  <line x1="200" y1="50" x2="200" y2="110" stroke="#60a5fa" stroke-width="0.5" opacity="0.5"/>
  <rect x="260" y="110" width="60" height="70" rx="8" fill="#f5f5f5" stroke="#d4d4d4" stroke-width="2"/>
  <rect x="276" y="128" width="6" height="18" rx="3" fill="#525252"/>
  <rect x="298" y="128" width="6" height="18" rx="3" fill="#525252"/>
  <circle cx="290" cy="160" r="4" fill="#525252"/>
  <rect x="278" y="104" width="4" height="28" rx="1" fill="#a3a3a3"/>
  <rect x="298" y="104" width="4" height="28" rx="1" fill="#a3a3a3"/>
  <path d="M 290 104 Q 250 70 230 80" stroke="#525252" stroke-width="3" fill="none" stroke-linecap="round"/>
  <rect x="0" y="170" width="400" height="30" rx="0" fill="#86efac" opacity="0.6"/>
</svg>
